#!OML:ASF F:\VICON\USERDATA\INSTALL\rory3\rory3.ASF
:FULLY-SPECIFIED
:DEGREES
386
root 18.1096 15.7672 -13.348 -199.34 78.8014 -198.811
lowerback 6.73537 -1.95297 -3.92364
upperback -1.76714 -2.99787 -1.06565
thorax -5.47824 -1.36104 1.42706
lowerneck -0.12147 -15.9069 -20.7367
upperneck 19.1906 -24.5814 20.7863
head 11.6382 -11.4728 7.52619
rclavicle -2.45685e-014 -1.10325e-014
rhumerus -40.5331 2.29611 -88.4939
rradius 27.725
rwrist 11.8536
rhand -14.5091 15.7637
rfingers 7.12502
rthumb 11.6382 -13.8931
lclavicle -2.45685e-014 -1.10325e-014
lhumerus -32.3186 9.4919 79.2521
lradius 26.2054
lwrist 0.679203
lhand -14.2487 13.9612
lfingers 7.12502
lthumb 11.8893 43.6037
rfemur -20.5484 -0.99041 27.2463
rtibia 29.3207
rfoot -26.9334 -31.8986
rtoes 33.5849
lfemur 2.08524 14.7457 -25.4285
ltibia 37.8072
lfoot -10.2552 11.0873
ltoes -12.9534
387
root 18.1882 15.7694 -13.3635 -200.169 79.3717 -199.471
lowerback 6.93434 -1.97506 -3.86416
upperback -1.70348 -3.03113 -1.07904
thorax -5.5265 -1.37929 1.39056
lowerneck 0.23652 -16.2318 -20.9183
upperneck 18.6971 -25.1626 21.3058
head 11.6474 -11.7566 7.6238
rclavicle -2.95397e-014 4.96962e-015
rhumerus -40.4584 2.51865 -88.7323
rradius 27.9406
rwrist 11.6208
rhand -14.7539 15.4863
rfingers 7.12502
rthumb 11.4021 -14.1837
lclavicle -2.95397e-014 4.96962e-015
lhumerus -32.7934 10.6017 78.5769
lradius 25.9147
lwrist -0.925618
lhand -12.4809 13.6196
lfingers 7.12502
lthumb 13.5935 43.1558
rfemur -20.0051 -0.972613 27.3978
rtibia 29.2418
rfoot -26.1364 -31.7984
rtoes 32.7901
lfemur 1.31622 15.0161 -25.0023
ltibia 40.0454
lfoot -8.71982 10.6827
ltoes -13.7972
388
root 18.2627 15.7717 -13.3762 -200.313 80.0227 -199.468
lowerback 7.19937 -2.03442 -3.6773
upperback -1.68219 -3.10432 -1.02259
thorax -5.6575 -1.41861 1.3642
lowerneck 0.64062 -16.5658 -21.1831
upperneck 18.2173 -25.7517 21.7728
head 11.6641 -12.0587 7.71114
rclavicle 1.14845e-014 -2.18663e-015
rhumerus -40.4097 2.73477 -88.9154
rradius 28.1595
rwrist 11.4733
rhand -14.8613 15.158
rfingers 7.12502
rthumb 11.2985 -14.5177
lclavicle 1.14845e-014 -2.18663e-015
lhumerus -33.3198 11.9496 77.7568
lradius 25.5908
lwrist -3.02849
lhand -10.8816 13.2754
lfingers 7.12502
lthumb 15.1346 42.702
rfemur -19.4492 -1.01274 27.715
rtibia 29.0387
rfoot -25.1647 -31.6595
rtoes 32.1554
lfemur 0.414774 15.3213 -24.3673
ltibia 42.3959
lfoot -7.16575 10.1442
ltoes -13.1325
389
root 18.3329 15.7721 -13.3867 -198.289 80.8312 -197.257
lowerback 7.53768 -2.08065 -3.10264
upperback -1.65497 -3.12049 -0.861243
thorax -5.84059 -1.4415 1.22778
lowerneck 1.1894 -16.9553 -21.4623
upperneck 17.5912 -26.43 22.2921
head 11.6388 -12.4167 7.80182
rclavicle 2.09656e-016 -9.64106e-015
rhumerus -40.4089 3.11264 -89.1607
rradius 28.4803
rwrist 11.0985
rhand -14.9809 15.0595
rfingers 7.12502
rthumb 11.1832 -14.6225
lclavicle 2.09656e-016 -9.64106e-015
lhumerus -33.7768 12.6275 77.3239
lradius 25.3341
lwrist -3.96516
lhand -10.2133 13.2897
lfingers 7.12502
lthumb 15.7783 42.6666
rfemur -18.8651 -0.996686 28.4631
rtibia 28.7946
rfoot -24.2083 -31.4635
rtoes 31.681
lfemur -0.57768 15.4761 -23.3364
ltibia 44.8077
lfoot -5.54405 9.64276
ltoes -13.2322
390
root 18.4009 15.772 -13.3991 -195.774 81.6706 -194.628
lowerback 7.77137 -2.07158 -2.48244
upperback -1.63127 -3.04944 -0.704621
thorax -5.97387 -1.42445 1.04578
lowerneck 1.90237 -17.3953 -21.8014
upperneck 16.7846 -27.206 22.9586
head 11.5862 -12.8352 7.93599
rclavicle -4.46334e-015 3.77691e-015
rhumerus -40.4325 3.57596 -89.4752
rradius 28.8249
rwrist 10.5356
rhand -15.1908 14.8675
rfingers 7.12502
rthumb 10.9807 -14.8253
lclavicle -4.46334e-015 3.77691e-015
lhumerus -34.1061 12.721 77.2892
lradius 24.9946
lwrist -3.73017
lhand -10.1532 13.408
lfingers 7.12502
lthumb 15.8361 42.7803
rfemur -18.3603 -0.921236 29.2141
rtibia 28.5537
rfoot -23.4917 -31.2295
rtoes 31.0927
lfemur -1.69078 15.365 -22.3989
ltibia 47.1922
lfoot -3.87121 9.13472
ltoes -13.9371
391
root 18.4653 15.7712 -13.4134 -194.548 82.4821 -193.421
lowerback 7.94887 -2.03182 -2.0967
upperback -1.66875 -2.95936 -0.602939
thorax -6.13092 -1.38991 0.933452
lowerneck 2.6925 -17.8642 -22.1352
upperneck 15.8689 -27.9991 23.557
head 11.4784 -13.2801 8.03645
rclavicle 5.27696e-014 2.98177e-015
rhumerus -40.4988 3.93795 -89.6838
rradius 29.1659
rwrist 10.0398
rhand -15.3581 14.7186
rfingers 7.12502
rthumb 10.8194 -14.9827
lclavicle 5.27696e-014 2.98177e-015
lhumerus -34.4379 12.847 77.2636
lradius 24.5329
lwrist -3.72631
lhand -10.4319 13.245
lfingers 7.12502
lthumb 15.5677 42.6384
rfemur -17.9495 -0.949014 29.6773
rtibia 28.2667
rfoot -22.965 -30.6886
rtoes 30.9141
lfemur -2.90054 15.2467 -21.8006
ltibia 49.4702
lfoot -1.89187 8.46422
ltoes -14.1207
392
root 18.5299 15.7674 -13.4282 -193.631 83.2609 -192.388
lowerback 8.26015 -2.05311 -1.76413
upperback -1.64121 -2.95811 -0.545063
thorax -6.29268 -1.39831 0.820249
lowerneck 3.32971 -18.3252 -22.3039
upperneck 15.0085 -28.7371 24.0286
head 11.3605 -13.687 8.06588
rclavicle 2.32252e-014 0
rhumerus -40.4597 4.2833 -89.9152
rradius 29.382
rwrist 9.79197
rhand -15.7586 14.9254
rfingers 7.12502
rthumb 10.4331 -14.7957
lclavicle 2.32252e-014 0
lhumerus -34.8053 13.6309 76.8174
lradius 24.0778
lwrist -4.62068
lhand -10.6404 13.1568
lfingers 7.12502
lthumb 15.3669 42.5658
rfemur -17.3864 -1.08406 30.0445
rtibia 28
rfoot -22.6139 -29.8596
rtoes 31.0028
lfemur -3.90509 15.1643 -21.2167
ltibia 51.5861
lfoot 0.227232 7.69394
ltoes -14.3878
393
root 18.5965 15.7644 -13.4412 -190.649 84.1635 -189.104
lowerback 8.67634 -2.1106 -1.27948
upperback -1.50999 -2.98413 -0.457671
thorax -6.41025 -1.42628 0.658445
lowerneck 3.86403 -18.7263 -22.4027
upperneck 14.2628 -29.41 24.602
head 11.3043 -14.0448 8.13409
rclavicle 2.90319e-014 5.76476e-015
rhumerus -40.2923 4.80337 -90.3316
rradius 29.5283
rwrist 9.51641
rhand -15.9832 15.1682
rfingers 7.12502
rthumb 10.2163 -14.5637
lclavicle 2.90319e-014 5.76476e-015
lhumerus -35.1236 14.541 76.1966
lradius 23.6801
lwrist -5.35506
lhand -10.5266 13.3707
lfingers 7.12502
lthumb 15.4765 42.7712
rfemur -16.6419 -0.969356 30.6435
rtibia 27.7615
rfoot -22.2825 -29.3617
rtoes 30.8168
lfemur -4.69358 14.9301 -20.3844
ltibia 53.5625
lfoot 1.77102 7.26221
ltoes -12.7883
394
root 18.6599 15.7608 -13.4553 -187.267 85.1111 -185.548
lowerback 8.91777 -2.14829 -0.896861
upperback -1.35099 -2.98618 -0.343735
thorax -6.39278 -1.43954 0.569991
lowerneck 4.47437 -19.105 -22.5983
upperneck 13.3716 -30.0607 25.3235
head 11.2309 -14.4076 8.27353
rclavicle 1.39258e-014 2.5842e-015
rhumerus -39.8933 5.21026 -90.6232
rradius 29.5543
rwrist 9.32607
rhand -15.797 15.1039
rfingers 7.12502
rthumb 10.396 -14.6191
lclavicle 1.39258e-014 2.5842e-015
lhumerus -35.3342 15.1065 75.8649
lradius 23.3602
lwrist -5.57493
lhand -10.5156 13.5818
lfingers 7.12502
lthumb 15.4871 42.9815
rfemur -16.0577 -0.785799 31.19
rtibia 27.5509
rfoot -22.05 -28.9419
rtoes 30.8155
lfemur -5.60218 14.6848 -19.716
ltibia 55.4025
lfoot 2.94705 6.92184
ltoes -10.2306
